<svg xmlns="http://www.w3.org/2000/svg" version="1.1">
  <path d="M 80 200 C 40 200 40 140 80 140 C 90 100 150 100 170 140 C 210 100 280 110 290 150 C 340 150 340 220 290 220 C 280 260 220 260 200 230 C 170 260 120 260 110 220 C 70 230 60 220 80 200 Z" style="fill:rgb(0,0,0)" />
  <path d="M 80 200 C 40 200 40 140 80 140 C 90 100 150 100 170 140 C 210 100 280 110 290 150 C 340 150 340 220 290 220 C 280 260 220 260 200 230 C 170 260 120 260 110 220 C 70 230 60 220 80 200 Z" style="fill:rgb(255,255,255)" />
</svg>
