<svg xmlns="http://www.w3.org/2000/svg" version="1.1">
  <circle cx="20" cy="50" r="5" style="fill:rgb(180,180,180)" />
  <circle cx="28" cy="50" r="5" style="fill:rgb(180,180,180)" />
  <circle cx="36" cy="50" r="5" style="fill:rgb(180,180,180)" />
  <circle cx="44" cy="50" r="5" style="fill:rgb(180,180,180)" />
  <circle cx="52" cy="50" r="5" style="fill:rgb(180,180,180)" />
  <circle cx="60" cy="50" r="5" style="fill:rgb(180,180,180)" />
  <circle cx="68" cy="50" r="5" style="fill:rgb(180,180,180)" />
  <circle cx="76" cy="50" r="5" style="fill:rgb(180,180,180)" />
  <circle cx="18" cy="48" r="3" style="fill:rgb(0,0,0)" />
  <circle cx="45" cy="40" r="4" style="fill:rgb(150,150,150)" />
  <circle cx="55" cy="35" r="4" style="fill:rgb(150,150,150)" />
  <circle cx="35" cy="35" r="4" style="fill:rgb(150,150,150)" />
  <circle cx="45" cy="60" r="4" style="fill:rgb(150,150,150)" />
  <circle cx="55" cy="65" r="4" style="fill:rgb(150,150,150)" />
  <circle cx="35" cy="65" r="4" style="fill:rgb(150,150,150)" />
  <circle cx="50" cy="42" r="3" style="fill:rgb(100,100,100)" />
  <circle cx="50" cy="58" r="3" style="fill:rgb(100,100,100)" />
  <circle cx="80" cy="45" r="4" style="fill:rgb(0,0,255)" />
  <circle cx="82" cy="40" r="3" style="fill:rgb(0,0,255)" />
  <circle cx="78" cy="48" r="3" style="fill:rgb(0,0,200)" />
  <circle cx="78" cy="52" r="3" style="fill:rgb(0,0,200)" />
  <circle cx="40" cy="65" r="2" style="fill:rgb(0,0,0)" />
  <circle cx="60" cy="65" r="2" style="fill:rgb(0,0,0)" />
</svg>
